<?xml version="1.0" encoding="utf-8"?>
<!-- Generator: Adobe Illustrator 18.0.0, SVG Export Plug-In . SVG Version: 6.00 Build 0)  -->
<!DOCTYPE svg PUBLIC "-//W3C//DTD SVG 1.1//EN" "http://www.w3.org/Graphics/SVG/1.1/DTD/svg11.dtd">
<svg version="1.1" id="Layer_1" xmlns:sketch="http://www.bohemiancoding.com/sketch/ns"
	 xmlns="http://www.w3.org/2000/svg" xmlns:xlink="http://www.w3.org/1999/xlink" x="0px" y="0px" width="291px" height="447px"
	 viewBox="0 0 291 447" enable-background="new 0 0 291 447" xml:space="preserve">
<g>
	<path fill="none" d="M123.2,228.3c-4-5.4-5.4-11.4-4.8-17.3C117.8,216.9,119.1,223,123.2,228.3c1,1.4,1.4,3.1,1.3,4.7
		C124.7,231.4,124.2,229.7,123.2,228.3z"/>
	<path fill="none" d="M156.7,228.6c-1.3,1.1-2.2,2.7-2.3,4.4c-1.8,19.9-3.3,39.7-5.2,59.5c-0.3,3.5-3.3,6.2-6.8,6.2
		c-10.7,0.1-21.4,0.1-32.1,0.1c-4.2,0-7.2-3.6-6.8-7.5c-0.5,3.9,2.6,7.6,6.8,7.6c10.7,0,21.4,0,32.1-0.1c3.5,0,6.5-2.7,6.8-6.2
		c1.9-19.8,3.5-39.7,5.2-59.5C154.5,231.4,155.4,229.8,156.7,228.6c7.7-6.6,14.9-16.2,15.8-26C171.5,212.4,164.3,221.9,156.7,228.6z
		"/>
	<path fill="#414042" d="M168.3,187.7c-0.4-0.5-0.8-1-1.3-1.4c-19.2-15.9-46.3,3.5-48.6,24.7c-0.6,5.9,0.7,11.9,4.8,17.3
		c1,1.4,1.4,3.1,1.3,4.7c-0.1,0.6-0.2,1.1-0.4,1.7c-6.6,18.4-13.2,36.7-20.2,55c-0.2,0.5-0.3,1.1-0.4,1.6c-0.4,3.9,2.6,7.5,6.8,7.5
		c10.7,0,21.4,0,32.1-0.1c3.5,0,6.5-2.7,6.8-6.2c1.9-19.8,3.4-39.6,5.2-59.5c0.1-1.7,1-3.3,2.3-4.4c7.6-6.7,14.8-16.2,15.8-26
		C173,197.6,171.8,192.5,168.3,187.7z"/>
	<path fill="#414042" d="M36.1,108.6c-12-1-24-1.5-36.1-1.7v31.6c0.9,0,1.9,0,2.9,0c4.2,0,7.4,4.1,6.4,8.1
		c-3.1,12.5-6.1,24.7-9.3,36.8V183c0,0.1-0.1,0.3-0.1,0.4v124.9C13.5,245.2,32,160.3,42,116.9C43.1,112.9,40.2,108.9,36.1,108.6z"/>
	<path fill="#414042" d="M253.2,21L253.2,21L253.2,21l-1-1.5c-3.6-5.6-9.3-13.7-13.6-19.6H0v50.4h0.1v-0.1h233.6c4,0,7,3.7,6.5,7.7
		c-1.5,13.4-4.5,26.6-7.5,39.8c-0.9,4.2,2.2,8.2,6.5,8.3c12.1,0.4,24.1,0.6,36.1,0.9c4.2,0.1,7.5,4.1,6.5,8.2
		c-18.7,73.1-60.5,254.9-64.6,273.1c-0.1,0.4-0.3,0.8-0.6,1.2c-1.1,1.7-3.4,2.5-5.6,2.5H0V447h205.6c6.6-6.7,15.2-15.9,20.9-22.6
		l0.9-1.2H291V21H253.2z"/>
	<path fill="#A1CA3B" d="M227.5,423.3l-0.9,1.1c-5.7,6.7-14.3,15.9-20.9,22.6h4.2h4.2c5-5.3,11.9-12.7,16.2-17.7H291v-6H227.5z"/>
	<path fill="#A1CA3B" d="M291,15h-34.5c-2.6-4-7.1-10.5-10.4-15h-3.7l0,0h-0.1h-3.6c4.3,5.9,10,14,13.6,19.6l0.8,1.3H291V15z"/>
	<polygon fill="#A1CA3B" points="291,21 291,20.9 253.1,20.9 253.2,21 	"/>
	<path fill="#A0CC41" d="M281.7,115.2c1.1-4.1-2.3-8.1-6.5-8.2c-12.1-0.3-24.1-0.5-36.1-0.9c-4.3-0.1-7.4-4.1-6.5-8.3
		c3-13.2,6-26.4,7.5-39.8c0.5-4-2.5-7.7-6.5-7.7H0.1v56.5c12,0.2,24.1,0.7,36.1,1.7c4.1,0.3,7,4.3,6,8.3
		c-10,43.4-28.6,128.3-42.1,191.4v83.5h211c2.1,0.1,4.4-0.7,5.5-2.3c0.2-0.3,0.4-0.7,0.5-1.1C221.3,370.1,263,188.3,281.7,115.2z
		 M172.5,202.6c-0.9,9.8-8.1,19.4-15.8,26.1c-1.3,1.1-2.2,2.7-2.3,4.4c-1.7,19.8-3.3,39.7-5.2,59.5c-0.3,3.5-3.3,6.2-6.8,6.2
		c-10.7,0.1-21.4,0.1-32.1,0.1c-4.2,0-7.3-3.7-6.8-7.6c0.1-0.6,0.2-1.2,0.4-1.7c7-18.2,13.6-36.6,20.2-55c0.2-0.5,0.3-1.1,0.4-1.6
		c0.1-1.6-0.3-3.3-1.3-4.6c-4-5.5-5.4-11.5-4.8-17.4c2.2-21.1,29.3-40.6,48.6-24.8c0.5,0.4,1,0.8,1.4,1.2
		C171.9,192.3,173.1,197.5,172.5,202.6z"/>
	<path fill="#A0CC41" d="M281.8,115.1c1-4.1-2.3-8.1-6.5-8.2c-12-0.3-24-0.5-36.1-0.9c-4.3-0.1-7.4-4.1-6.5-8.3
		c3-13.2,6-26.4,7.5-39.8c0.5-4-2.5-7.7-6.5-7.7H0.1v0.1h233.5c4,0,7,3.7,6.5,7.7c-1.5,13.4-4.5,26.6-7.5,39.8
		c-0.9,4.2,2.2,8.2,6.5,8.3c12,0.4,24,0.6,36.1,0.9C279.4,107.1,282.8,111.1,281.8,115.1c-18.8,73.2-60.5,255-64.7,273.2
		c-0.1,0.4-0.3,0.8-0.5,1.1c0.3-0.4,0.5-0.8,0.6-1.2C221.3,370,263.1,188.2,281.8,115.1z"/>
	<path fill="#A0CC41" d="M124.1,234.7c0.2-0.6,0.3-1.1,0.4-1.7C124.4,233.5,124.3,234.1,124.1,234.7c-6.6,18.3-13.2,36.7-20.2,54.9
		c-0.2,0.6-0.4,1.2-0.4,1.7c0.1-0.5,0.2-1.1,0.4-1.6C110.9,271.4,117.5,253.1,124.1,234.7z"/>
	<path fill="#A0CC41" d="M167,186.2c-19.2-15.9-46.4,3.6-48.6,24.8c2.2-21.1,29.3-40.5,48.6-24.7c0.5,0.4,0.9,0.9,1.3,1.4
		c3.5,4.8,4.7,9.9,4.2,14.9c0.5-5.1-0.6-10.3-4.1-15.2C168,187,167.5,186.6,167,186.2z"/>
	<path fill="#A0CC41" d="M2.9,138.5c-1,0-2,0-2.9,0V183c3.2-12,6.1-24,9.2-36.4C10.2,142.6,7.1,138.5,2.9,138.5z"/>
	<path fill="#A0CC41" d="M9.3,146.6c1-4-2.2-8.1-6.4-8.1C7.1,138.5,10.2,142.6,9.3,146.6C6.1,159,3.2,171,0,183v0.4
		C3.2,171.3,6.2,159.1,9.3,146.6z"/>
</g>
</svg>
