<?xml version="1.0" encoding="utf-8"?>
<!-- Generator: Adobe Illustrator 18.0.0, SVG Export Plug-In . SVG Version: 6.00 Build 0)  -->
<!DOCTYPE svg PUBLIC "-//W3C//DTD SVG 1.1//EN" "http://www.w3.org/Graphics/SVG/1.1/DTD/svg11.dtd">
<svg version="1.1" id="Layer_1" xmlns:sketch="http://www.bohemiancoding.com/sketch/ns"
	 xmlns="http://www.w3.org/2000/svg" xmlns:xlink="http://www.w3.org/1999/xlink" x="0px" y="0px" width="1020px" height="447px"
	 viewBox="0 0 1020 447" enable-background="new 0 0 1020 447" xml:space="preserve">
<g>
	<g>
		<path fill="#414042" d="M124.1,234.6c0.8-2.1,0.4-4.5-0.9-6.3c-18.4-24.8,19.2-62.4,43.8-42.1c0.5,0.4,1,0.8,1.4,1.2
			c10.4,14.4-0.2,31.1-11.7,41.2c-1.3,1.1-2.2,2.7-2.3,4.4c-1.8,19.9-3.3,39.7-5.2,59.5c-0.3,3.5-3.3,6.2-6.8,6.2
			c-10.7,0.1-21.4,0.1-32.1,0.1c-4.8,0-8.1-4.7-6.4-9.2C110.9,271.4,117.5,253,124.1,234.6z M36.1,108.6c-12-1-24-1.5-36.1-1.7v31.6
			c0.9,0,1.9,0,2.9,0c4.2,0,7.3,4.1,6.3,8.1c-3.1,12.5-6.1,24.7-9.3,36.8v124.9C13.5,245.2,32,160.3,42,116.9
			C43.1,112.9,40.2,108.9,36.1,108.6z M983,35.2c-9.1-9.2-21.2-14.3-34.1-14.3H253.1l-0.9-1.4c-3.6-5.6-9.3-13.7-13.6-19.6H0v50.4
			h233.6c4,0,7,3.7,6.5,7.7c-1.5,13.4-4.5,26.6-7.5,39.8c-0.9,4.2,2.2,8.2,6.5,8.3c12,0.4,24,0.6,36.1,0.9c4.2,0.1,7.6,4.1,6.5,8.2
			c-18.7,73.1-60.4,254.9-64.6,273.1c-0.6,2.5-3.5,3.6-6.1,3.6H0V447h205.6c6.6-6.7,15.2-15.9,20.9-22.6l0.9-1.2h721.5
			c26.3,0,47.8-21.4,47.8-47.8V69.1C996.9,56.3,992,44.3,983,35.2z"/>
	</g>
	<g>
		<path fill="none" d="M242.3-0.1c4.3,5.9,8.5,11.9,12.5,18C250.8,11.7,246.7,5.8,242.3-0.1z"/>
		<path fill="none" d="M209.9,446.9c6.6-6.6,13-13.5,19-20.7C222.8,433.4,216.5,440.3,209.9,446.9z"/>
		<path fill="#A1CA3B" d="M242.3,0h-3.6c4.3,5.9,10,14,13.6,19.6l0.9,1.4h695.7c12.9,0,25,5.1,34.1,14.3c9,9.1,13.8,21.1,13.7,33.9
			v306.3c0,26.4-21.4,47.8-47.8,47.8H227.5l-0.9,1.1c-5.7,6.7-14.3,15.9-20.9,22.6h4.2c7-6.2,13.2-13.2,19-20.7
			c-5.6,7.3-12.4,14.1-19,20.7h4.2c5-5.3,11.9-12.7,16.2-17.7H949c29.6,0,53.8-24.1,53.8-53.8V69.2c0.2-14.3-5.3-27.9-15.4-38.1
			C977.2,20.7,963.5,15,949,15H256.5c-2.6-4-7.1-10.5-10.4-15H242.3"/>
	</g>
	<path fill="#A0CC41" d="M275.3,106.9c-12-0.3-24-0.5-36.1-0.9c-4.3-0.1-7.4-4.1-6.5-8.3c3-13.2,6-26.4,7.5-39.8
		c0.5-4-2.5-7.7-6.5-7.7H0.1v56.6c12,0.2,24.1,0.7,36.1,1.7c4.1,0.3,7,4.3,6,8.3c-10,43.4-28.6,128.3-42.1,191.4v83.5h211
		c2.6,0.1,5.5-1.1,6.1-3.5c4.1-18.2,45.9-200,64.6-273.1C282.8,111,279.5,107,275.3,106.9z M156.7,228.7c-1.3,1.1-2.2,2.7-2.3,4.4
		c-1.7,19.8-3.3,39.7-5.2,59.5c-0.3,3.5-3.3,6.2-6.8,6.2c-10.7,0.1-21.4,0.1-32.1,0.1c-4.8,0-8.1-4.8-6.4-9.2
		c7-18.3,13.6-36.6,20.2-55c0.8-2.1,0.4-4.5-0.9-6.3c-18.4-24.9,19.2-62.4,43.8-42.1c0.5,0.4,0.9,0.9,1.3,1.4
		C178.8,201.9,168.3,218.6,156.7,228.7z"/>
	<path fill="#A0CC41" d="M2.9,138.5c-1,0-2,0-2.9,0v44.9c3.2-12.1,6.2-24.3,9.3-36.8C10.3,142.6,7.1,138.5,2.9,138.5z"/>
</g>
</svg>
