<?xml version="1.0" encoding="utf-8"?>
<!-- Generator: Adobe Illustrator 18.0.0, SVG Export Plug-In . SVG Version: 6.00 Build 0)  -->
<!DOCTYPE svg PUBLIC "-//W3C//DTD SVG 1.1//EN" "http://www.w3.org/Graphics/SVG/1.1/DTD/svg11.dtd">
<svg version="1.1" id="Isolation_Mode" xmlns="http://www.w3.org/2000/svg" xmlns:xlink="http://www.w3.org/1999/xlink" x="0px"
	 y="0px" width="54.6px" height="447px" viewBox="0 0 54.6 447" enable-background="new 0 0 54.6 447" xml:space="preserve">
<path fill="none" d="M0.3,423.4h-0.7v0.1L0.3,423.4c25.6,0.1,46.5-20,47.7-45.3C46.7,403.4,25.7,423.4,0.3,423.4z"/>
<path fill="#414042" d="M48.1,69.4c0.1-12.8-4.7-24.8-13.7-33.9c-9.1-9.2-21.2-14.3-34.1-14.3h-0.7v402.2h0.7
	c25.5,0,46.4-20,47.7-45.3c0-0.8,0.1-1.6,0.1-2.4V69.4z"/>
<path fill="#A1CA3B" d="M38.8,31.3C28.6,20.9,14.9,15.2,0.4,15.2h-0.8v5.9h0.7c12.9,0,25,5.1,34.1,14.3c9,9.1,13.9,21.1,13.7,33.9
	v306.3c0,0.8,0,1.7-0.1,2.5c-1.3,25.3-22.2,45.4-47.7,45.4h-0.7v6h0.8c29.6,0,53.8-24.1,53.8-53.8V69.4
	C54.4,55.1,48.9,41.5,38.8,31.3z"/>
<path fill="#A1CA3B" d="M0.3,21.2c12.9,0,25,5.1,34.1,14.3c9,9.1,13.8,21.1,13.7,33.9v306.3c0,0.8,0,1.6-0.1,2.4
	c0-0.8,0.1-1.7,0.1-2.5V69.3c0.2-12.8-4.7-24.8-13.7-33.9C25.3,26.2,13.2,21.1,0.3,21.2l-0.7-0.1v0.1H0.3z"/>
</svg>
